HIERARCHY
ROOT Hips
{
	OFFSET 0.000000 0.000000 0.000000
	CHANNELS 6 Xposition Yposition Zposition Zrotation Yrotation Xrotation
	JOINT LeftUpLeg
	{
		OFFSET 0.103459 1.857827 10.548521
		CHANNELS 6 Xposition Yposition Zposition Zrotation Yrotation Xrotation
		JOINT LeftLeg
		{
			OFFSET 43.499979 0.000107 0.000090
			CHANNELS 6 Xposition Yposition Zposition Zrotation Yrotation Xrotation
			JOINT LeftFoot
			{
				OFFSET 42.372168 0.000034 0.000010
				CHANNELS 6 Xposition Yposition Zposition Zrotation Yrotation Xrotation
				JOINT LeftToe
				{
					OFFSET 17.299924 -0.000089 0.000018
					CHANNELS 6 Xposition Yposition Zposition Zrotation Yrotation Xrotation
					End Site
					{
						OFFSET 6.000000 0.000000 0.000000
					}
				}
			}
		}
	}
	JOINT RightUpLeg
	{
		OFFSET 0.103456 1.857863 -10.548456
		CHANNELS 6 Xposition Yposition Zposition Zrotation Yrotation Xrotation
		JOINT RightLeg
		{
			OFFSET 43.500042 -0.000002 0.000029
			CHANNELS 6 Xposition Yposition Zposition Zrotation Yrotation Xrotation
			JOINT RightFoot
			{
				OFFSET 42.372205 0.000033 0.000070
				CHANNELS 6 Xposition Yposition Zposition Zrotation Yrotation Xrotation
				JOINT RightToe
				{
					OFFSET 17.299951 -0.000065 0.000070
					CHANNELS 6 Xposition Yposition Zposition Zrotation Yrotation Xrotation
					End Site
					{
						OFFSET 6.000000 0.000000 0.000000
					}
				}
			}
		}
	}
	JOINT Spine
	{
		OFFSET 6.901935 -2.603664 0.000033
		CHANNELS 6 Xposition Yposition Zposition Zrotation Yrotation Xrotation
		JOINT Spine1
		{
			OFFSET 12.588142 0.000010 -0.000051
			CHANNELS 6 Xposition Yposition Zposition Zrotation Yrotation Xrotation
			JOINT Spine2
			{
				OFFSET 12.343166 -0.000098 0.000026
				CHANNELS 6 Xposition Yposition Zposition Zrotation Yrotation Xrotation
				JOINT Neck
				{
					OFFSET 25.832894 0.000061 0.000061
					CHANNELS 6 Xposition Yposition Zposition Zrotation Yrotation Xrotation
					JOINT Head
					{
						OFFSET 11.766657 -0.000023 -0.000040
						CHANNELS 6 Xposition Yposition Zposition Zrotation Yrotation Xrotation
						End Site
						{
							OFFSET 12.000000 0.000000 0.000000
						}
					}
				}
				JOINT LeftShoulder
				{
					OFFSET 19.745926 -1.480308 6.000100
					CHANNELS 6 Xposition Yposition Zposition Zrotation Yrotation Xrotation
					JOINT LeftArm
					{
						OFFSET 11.284141 -0.000067 -0.000035
						CHANNELS 6 Xposition Yposition Zposition Zrotation Yrotation Xrotation
						JOINT LeftForeArm
						{
							OFFSET 33.000033 0.000026 -0.000005
							CHANNELS 6 Xposition Yposition Zposition Zrotation Yrotation Xrotation
							JOINT LeftHand
							{
								OFFSET 25.200056 0.000059 -0.000020
								CHANNELS 6 Xposition Yposition Zposition Zrotation Yrotation Xrotation
								End Site
								{
									OFFSET 9.000000 0.000000 0.000000
								}
							}
						}
					}
				}
				JOINT RightShoulder
				{
					OFFSET 19.746108 -1.480276 -5.999995
					CHANNELS 6 Xposition Yposition Zposition Zrotation Yrotation Xrotation
					JOINT RightArm
					{
						OFFSET 11.284248 -0.000015 -0.000063
						CHANNELS 6 Xposition Yposition Zposition Zrotation Yrotation Xrotation
						JOINT RightForeArm
						{
							OFFSET 33.000071 0.000058 0.000097
							CHANNELS 6 Xposition Yposition Zposition Zrotation Yrotation Xrotation
							JOINT RightHand
							{
								OFFSET 25.199705 0.000114 0.000349
								CHANNELS 6 Xposition Yposition Zposition Zrotation Yrotation Xrotation
								End Site
								{
									OFFSET 9.000000 0.000000 0.000000
								}
							}
						}
					}
				}
			}
		}
	}
}
MOTION
Frames: 7
Frame Time: 0.0333333
1.5217 96.7798 885.0000 92.5951 -12.6260 98.2901 0.1035 1.8578 10.5485 137.8651 4.2120 175.6271 43.5000 0.0001 0.0001 -59.2262 7.9503 0.2654 42.3722 0.0000 0.0000 79.5496 -2.3060 -2.8526 17.2999 -0.0001 0.0000 21.4546 0.0031 -0.0001 0.1035 1.8579 -10.5485 -132.6082 -2.2247 -171.1629 43.5000 -0.0000 0.0000 -36.5953 3.4300 5.5156 42.3722 0.0000 0.0001 140.4959 -4.5502 11.4099 17.3000 -0.0001 0.0001 21.4546 -0.0031 0.0000 6.9019 -2.6037 0.0000 1.6229 -2.6631 -6.3412 12.5881 0.0000 -0.0001 4.8775 1.2253 -4.8494 12.3432 -0.0001 0.0000 -3.3912 0.3244 -1.0967 25.8329 0.0001 0.0001 13.8193 5.1318 4.9326 11.7667 -0.0000 -0.0000 14.9072 -14.1441 -0.3639 19.7459 -1.4803 6.0001 -77.3609 -77.1236 -100.6538 11.2841 -0.0001 -0.0000 -82.7237 37.3306 -92.4387 33.0000 0.0000 -0.0000 -109.1611 -23.8012 -27.2247 25.2001 0.0001 -0.0000 12.8595 1.5532 18.3587 19.7461 -1.4803 -6.0000 -47.1189 87.1038 131.5335 11.2842 -0.0000 -0.0001 73.9285 -45.4439 -70.4114 33.0001 0.0001 0.0001 -86.4320 13.1745 18.1919 25.1997 0.0001 0.0003 12.2982 10.3537 -7.4738
1.5717 96.9203 894.8333 92.6921 -12.6459 98.4862 0.1035 1.8578 10.5485 136.4335 4.5505 175.5209 43.5000 0.0001 0.0001 -37.7247 4.6527 1.9522 42.3722 0.0000 0.0000 51.0447 -1.5740 0.9147 17.2999 -0.0001 0.0000 21.4546 0.0031 -0.0001 0.1035 1.8579 -10.5485 -131.2003 -2.5195 -171.0692 43.5000 -0.0000 0.0000 -49.7122 2.8656 5.2383 42.3722 0.0000 0.0001 158.0796 -6.3326 13.1798 17.3000 -0.0001 0.0001 21.4546 -0.0031 0.0000 6.9019 -2.6037 0.0000 1.6275 -2.7533 -6.5615 12.5881 0.0000 -0.0001 4.8745 1.2440 -5.0359 12.3432 -0.0001 0.0000 -3.3920 0.3270 -1.1591 25.8329 0.0001 0.0001 13.8437 5.0620 5.1734 11.7667 -0.0000 -0.0000 14.9072 -14.1441 -0.3639 19.7459 -1.4803 6.0001 -77.6363 -76.8822 -100.3681 11.2841 -0.0001 -0.0000 -82.9507 35.8950 -92.9655 33.0000 0.0000 -0.0000 -109.6782 -23.9708 -27.2679 25.2001 0.0001 -0.0000 12.8595 1.5532 18.3587 19.7461 -1.4803 -6.0000 -43.3844 87.2737 135.2694 11.2842 -0.0000 -0.0001 74.1694 -43.9695 -70.7907 33.0001 0.0001 0.0001 -85.9190 13.1042 18.0604 25.1997 0.0001 0.0003 12.2982 10.3537 -7.4738
1.2328 95.9673 904.6667 92.0329 -12.5244 97.1558 0.1035 1.8578 10.5485 146.1257 2.2686 175.9706 43.5000 0.0001 0.0001 -37.7247 4.6527 1.9522 42.3722 0.0000 0.0000 60.7360 -2.0332 -0.3202 17.2999 -0.0001 0.0000 21.4546 0.0031 -0.0001 0.1035 1.8579 -10.5485 -140.7769 -0.6818 -171.8807 43.5000 -0.0000 0.0000 -81.1843 1.3747 5.1382 42.3722 0.0000 0.0001 -172.5587 -10.1975 14.6942 17.3000 -0.0001 0.0001 21.4546 -0.0031 0.0000 6.9019 -2.6037 0.0000 1.5966 -2.1411 -5.0683 12.5881 0.0000 -0.0001 4.8937 1.1171 -3.7714 12.3432 -0.0001 0.0000 -3.3866 0.3093 -0.7360 25.8329 0.0001 0.0001 13.6722 5.5335 3.5393 11.7667 -0.0000 -0.0000 14.9072 -14.1441 -0.3639 19.7459 -1.4803 6.0001 -75.5397 -78.5124 -102.5348 11.2841 -0.0001 -0.0000 -80.9362 45.5883 -88.9857 33.0000 0.0000 -0.0000 -106.1823 -22.8287 -26.9436 25.2001 0.0001 -0.0000 12.8595 1.5532 18.3587 19.7461 -1.4803 -6.0000 -61.8195 85.9554 116.8247 11.2842 -0.0000 -0.0001 72.0523 -53.9391 -67.7618 33.0001 0.0001 0.0001 -89.3970 13.6030 18.9397 25.1997 0.0001 0.0003 12.2982 10.3537 -7.4738
0.5890 94.1566 914.5000 90.7712 -12.3800 94.6257 0.1035 1.8578 10.5485 164.5453 -1.6211 175.1984 43.5000 0.0001 0.0001 -37.7247 4.6527 1.9522 42.3722 0.0000 0.0000 79.1724 -2.3087 -2.8014 17.2999 -0.0001 0.0000 21.4546 0.0031 -0.0001 0.1035 1.8579 -10.5485 -159.1819 1.5839 -174.2749 43.5000 -0.0000 0.0000 -101.6200 0.4689 5.5063 42.3722 0.0000 0.0001 -165.4226 -11.2086 14.7473 17.3000 -0.0001 0.0001 21.4546 -0.0031 0.0000 6.9019 -2.6037 0.0000 1.5366 -0.9775 -2.2324 12.5881 0.0000 -0.0001 4.9223 0.8751 -1.3689 12.3432 -0.0001 0.0000 -3.3765 0.2756 0.0681 25.8329 0.0001 0.0001 13.3088 6.4152 0.4266 11.7667 -0.0000 -0.0000 14.9072 -14.1441 -0.3639 19.7459 -1.4803 6.0001 -69.3217 -81.5423 -108.8857 11.2841 -0.0001 -0.0000 -71.3407 63.4252 -75.9845 33.0000 0.0000 -0.0000 -99.5955 -20.7176 -26.1320 25.2001 0.0001 -0.0000 12.8595 1.5532 18.3587 19.7461 -1.4803 -6.0000 -75.3319 82.9904 103.2940 11.2842 -0.0000 -0.0001 60.3092 -72.3993 -54.4107 33.0001 0.0001 0.0001 -96.0049 14.6894 20.5230 25.1997 0.0001 0.0003 12.2982 10.3537 -7.4738
-0.2005 93.0640 924.3333 89.2163 -12.3583 91.5213 0.1035 1.8578 10.5485 -172.6611 -4.5510 172.0210 43.5000 0.0001 0.0001 -37.7247 4.6527 1.9522 42.3722 0.0000 0.0000 101.7680 -1.5610 -5.7627 17.2999 -0.0001 0.0000 21.4546 0.0031 -0.0001 0.1035 1.8579 -10.5485 177.9810 1.8583 -177.6445 43.5000 -0.0000 0.0000 -105.9778 0.2962 5.6251 42.3722 0.0000 0.0001 177.5902 -8.8240 14.4123 17.3000 -0.0001 0.0001 21.4546 -0.0031 0.0000 6.9019 -2.6037 0.0000 1.4607 0.4505 1.2433 12.5881 0.0000 -0.0001 4.9435 0.5769 1.5770 12.3432 -0.0001 0.0000 -3.3649 0.2341 1.0541 25.8329 0.0001 0.0001 12.7972 7.4675 -3.4061 11.7667 -0.0000 -0.0000 14.9072 -14.1441 -0.3639 19.7459 -1.4803 6.0001 -51.7049 -84.9344 -126.6647 11.2841 -0.0001 -0.0000 -11.5605 78.1919 -12.3260 33.0000 0.0000 -0.0000 -91.5891 -18.2678 -24.8111 25.2001 0.0001 -0.0000 12.8595 1.5532 18.3587 19.7461 -1.4803 -6.0000 -81.4662 79.1550 97.1371 11.2842 -0.0000 -0.0001 -52.0193 -79.7251 59.7960 33.0001 0.0001 0.0001 -104.1137 16.2515 22.2828 25.1997 0.0001 0.0003 12.2982 10.3537 -7.4738
-0.9405 95.1450 934.1667 87.7628 -12.4937 88.6138 0.1035 1.8578 10.5485 -151.2042 -4.6364 168.0781 43.5000 0.0001 0.0001 -37.7247 4.6527 1.9522 42.3722 0.0000 0.0000 122.8785 0.1233 -8.0783 17.2999 -0.0001 0.0000 21.4546 0.0031 -0.0001 0.1035 1.8579 -10.5485 156.5383 -0.1731 -179.8713 43.5000 -0.0000 0.0000 -93.1787 0.8267 5.3152 42.3722 0.0000 0.0001 140.8950 -4.5844 11.4558 17.3000 -0.0001 0.0001 21.4546 -0.0031 0.0000 6.9019 -2.6037 0.0000 1.3873 1.7899 4.4984 12.5881 0.0000 -0.0001 4.9495 0.2969 4.3376 12.3432 -0.0001 0.0000 -3.3546 0.1951 1.9782 25.8329 0.0001 0.0001 12.2530 8.4207 -7.0152 11.7667 -0.0000 -0.0000 14.9072 -14.1441 -0.3639 19.7459 -1.4803 6.0001 -4.9672 -86.6974 -173.5545 11.2841 -0.0001 -0.0000 50.4741 65.5789 53.3308 33.0000 0.0000 -0.0000 -84.1268 -16.1496 -23.2771 25.2001 0.0001 -0.0000 12.8595 1.5532 18.3587 19.7461 -1.4803 -6.0000 -84.2422 75.5059 94.3396 11.2842 -0.0000 -0.0001 -81.2896 -59.5871 90.8705 33.0001 0.0001 0.0001 -111.7304 17.9193 23.7207 25.1997 0.0001 0.0003 12.2982 10.3537 -7.4738
-1.4477 96.5717 944.0000 86.7742 -12.6731 86.6230 0.1035 1.8578 10.5485 -136.6252 -3.1176 165.6340 43.5000 0.0001 0.0001 -37.7247 4.6527 1.9522 42.3722 0.0000 0.0000 137.3110 1.7120 -9.2411 17.2999 -0.0001 0.0000 21.4546 0.0031 -0.0001 0.1035 1.8579 -10.5485 141.8574 -2.4229 179.7103 43.5000 -0.0000 0.0000 -66.3878 2.0822 5.0825 42.3722 0.0000 0.0001 93.4403 -3.0782 5.0303 17.3000 -0.0001 0.0001 21.4546 -0.0031 0.0000 6.9019 -2.6037 0.0000 1.3357 2.7088 6.7285 12.5881 0.0000 -0.0001 4.9458 0.1049 6.2301 12.3432 -0.0001 0.0000 -3.3480 0.1682 2.6117 25.8329 0.0001 0.0001 11.8446 9.0537 -9.4999 11.7667 -0.0000 -0.0000 14.9072 -14.1441 -0.3639 19.7459 -1.4803 6.0001 33.4365 -85.9284 147.9375 11.2841 -0.0001 -0.0000 60.3469 51.7736 65.8263 33.0000 0.0000 -0.0000 -79.0209 -14.8156 -22.0754 25.2001 0.0001 -0.0000 12.8595 1.5532 18.3587 19.7461 -1.4803 -6.0000 -85.4554 72.9916 93.1116 11.2842 -0.0000 -0.0001 -85.2316 -44.7084 96.1517 33.0001 0.0001 0.0001 -116.9702 19.1615 24.5736 25.1997 0.0001 0.0003 12.2982 10.3537 -7.4738
